<?xml version="1.0" standalone="no"?>
<!DOCTYPE svg PUBLIC "-//W3C//DTD SVG 20010904//EN"
 "http://www.w3.org/TR/2001/REC-SVG-20010904/DTD/svg10.dtd">
<svg version="1.0" xmlns="http://www.w3.org/2000/svg"
 width="310.000000pt" height="310.000000pt" viewBox="0 0 310.000000 310.000000"
 preserveAspectRatio="xMidYMid meet">
<metadata>
Created by potrace 1.11, written by Peter Selinger 2001-2013
</metadata>
<g transform="translate(0.000000,310.000000) scale(0.100000,-0.100000)"
fill="#000000" stroke="none">
<path d="M829 2239 c-14 -5 -31 -20 -37 -32 -8 -15 -13 -181 -15 -542 -2 -286
-6 -530 -10 -542 -37 -136 -122 -204 -255 -204 -82 0 -127 14 -210 68 -71 47
-107 47 -130 0 -44 -90 119 -197 308 -203 101 -3 153 7 237 46 98 45 188 155
207 251 2 13 8 42 13 64 5 22 9 268 8 547 0 493 -1 508 -20 527 -25 24 -63 32
-96 20z"/>
<path d="M1365 2239 c-17 -5 -44 -22 -60 -39 l-30 -31 0 -664 c0 -738 -4 -692
67 -702 24 -3 41 2 59 16 l24 19 2 574 c0 315 2 587 2 603 1 22 29 -31 107
-200 58 -126 119 -259 136 -295 17 -36 64 -139 105 -230 184 -406 191 -419
232 -444 28 -16 38 -17 70 -8 44 14 65 41 111 142 18 41 56 125 85 185 28 61
129 282 225 492 96 210 177 380 179 377 2 -2 4 -270 4 -595 0 -669 -4 -634 76
-634 79 0 74 -45 73 667 0 348 -1 648 -1 665 -1 43 -45 92 -91 102 -84 18
-133 -24 -202 -174 -26 -55 -64 -138 -86 -185 -22 -47 -92 -200 -157 -340 -64
-140 -120 -259 -124 -265 -4 -5 -14 -26 -21 -45 -8 -19 -32 -75 -55 -123 l-41
-88 -37 78 c-61 133 -118 256 -142 308 -12 28 -35 77 -50 110 -15 33 -90 195
-166 360 -85 184 -150 311 -167 328 -33 33 -84 47 -127 36z"/>
</g>
</svg>
